<svg width="196" height="235" viewBox="0 0 196 235" fill="none" xmlns="http://www.w3.org/2000/svg">
<circle cx="98" cy="98" r="98" fill="#13293D"/>
<path d="M154.544 52.624C159.152 52.624 161.408 54.352 161.312 57.808C161.312 58.672 161.12 59.872 160.736 61.408C160.352 62.944 160.112 63.952 160.016 64.432L134.96 153.712C132.368 154.96 129.728 155.584 127.04 155.584C125.12 155.584 123.536 155.248 122.288 154.576C121.04 154 120.224 153.088 119.84 151.84L99.104 78.544L77.504 153.712C74.912 154.96 72.368 155.584 69.872 155.584C65.36 155.584 62.816 154.336 62.24 151.84L38.336 61.696C37.664 59.296 36.512 57.088 34.88 55.072C36.704 53.248 39.056 52.336 41.936 52.336C43.952 52.336 45.584 52.72 46.832 53.488C48.176 54.256 49.04 55.408 49.424 56.944L71.312 145.648L92.336 71.488C92.624 70.336 92.768 69.28 92.768 68.32C92.768 66.88 92.48 65.584 91.904 64.432C93.056 63.856 94.4 63.424 95.936 63.136C97.472 62.752 98.816 62.56 99.968 62.56C101.408 62.56 102.608 62.8 103.568 63.28C104.624 63.664 105.344 64.288 105.728 65.152L128.624 145.504L148.496 61.696C148.592 61.216 148.736 60.496 148.928 59.536C149.216 58.576 149.36 57.76 149.36 57.088C149.36 55.648 149.072 54.496 148.496 53.632C150.512 52.96 152.528 52.624 154.544 52.624Z" fill="#F0E68C"/>
</svg>
